<svg xmlns="http://www.w3.org/2000/svg" viewBox="0 0 328.94 316.66"><g id="Слой_2" data-name="Слой 2"><ellipse cx="144.33" cy="100.39" rx="105.46" ry="99.89" style="fill:#b7b2b2;stroke:#fff;stroke-miterlimit:10"/><ellipse cx="144.33" cy="100.39" rx="82.59" ry="76.56" style="fill:#fff;stroke:#b7b2b2;stroke-miterlimit:10"/></g><g id="Слой_3" data-name="Слой 3"><path d="M281.1,418.39c4.15,3.65,21-7.81,31.83-18.68,6.92-7,27.89-28.07,26.13-56.72-2.19-35.6-38.2-61.89-45-57.65-6.06,3.77,15.65,28.76,11.43,67.47C301.36,390.54,275.63,413.59,281.1,418.39Z" transform="translate(-112.25 -250.59)" style="fill:#d14141;stroke:#d14141;stroke-miterlimit:10"/><path d="M228,418.31c4.15,3.64,21-7.81,31.83-18.69,6.92-7,27.89-28.07,26.13-56.71-2.19-35.6-38.19-61.9-45-57.66C234.88,289,256.6,314,252.38,352.73,248.26,390.45,222.54,413.51,228,418.31Z" transform="translate(-112.25 -250.59)" style="fill:#d14141;stroke:#d14141;stroke-miterlimit:10"/><path d="M175.79,417.38c4.15,3.65,21-7.81,31.83-18.68,6.93-7,27.89-28.07,26.13-56.72-2.18-35.6-38.19-61.89-45-57.65-6.07,3.77,15.65,28.76,11.43,67.47C196.05,389.53,170.33,412.58,175.79,417.38Z" transform="translate(-112.25 -250.59)" style="fill:#d14141;stroke:#d14141;stroke-miterlimit:10"/><g id="Слой_1" data-name="Слой 1"><g style="isolation:isolate"><text transform="translate(0 280.71)" style="isolation:isolate;font-size:95.48654174804688px;fill:#d14241;font-family:Arial-BoldMT, Arial;font-weight:700">My</text><text transform="translate(132.65 280.71)" style="isolation:isolate;font-size:95.48654174804688px;fill:#848484;font-family:Arial-BoldMT, Arial;font-weight:700">Giro</text></g></g></g></svg>